{
  "accessors": [
    {
      "bufferView": 2,
      "componentType": 5126,
      "count": 209,
      "max": [
        48.66989517211914,
        47.93048858642578,
        2.3177452087402344
      ],
      "min": [
        -48.66989517211914,
        -47.93049621582031,
        -61.09319305419922
      ],
      "type": "VEC3"
    },
    {
      "bufferView": 2,
      "byteOffset": 2508,
      "componentType": 5126,
      "count": 209,
      "max": [
        0.9999539852142334,
        0.9455959796905518,
        1.0
      ],
      "min": [
        -0.9621511101722717,
        -0.9455960988998413,
        -0.8888450860977173
      ],
      "type": "VEC3"
    },
    {
      "bufferView": 1,
      "componentType": 5126,
      "count": 209,
      "max": [
        0.646776020526886,
        0.9805814623832703
      ],
      "min": [
        0.02228192612528801,
        0.4464675784111023
      ],
      "type": "VEC2"
    },
    {
      "bufferView": 0,
      "componentType": 5125,
      "count": 750,
      "type": "SCALAR"
    },
    {
      "bufferView": 2,
      "byteOffset": 5016,
      "componentType": 5126,
      "count": 48,
      "max": [
        9.659391403198242,
        7.923700332641602,
        8.911867141723633
      ],
      "min": [
        -9.659395217895508,
        -7.923702716827393,
        -8.911869049072266
      ],
      "type": "VEC3"
    },
    {
      "bufferView": 2,
      "byteOffset": 5592,
      "componentType": 5126,
      "count": 48,
      "max": [
        0.7579521536827087,
        0.9125255942344666,
        0.9873015880584717
      ],
      "min": [
        -0.8274065256118774,
        -0.8659685850143433,
        -0.9798216819763184
      ],
      "type": "VEC3"
    },
    {
      "bufferView": 1,
      "byteOffset": 1672,
      "componentType": 5126,
      "count": 48,
      "max": [
        0.6002324223518372,
        0.714375913143158
      ],
      "min": [
        0.4325070381164551,
        0.5702173709869385
      ],
      "type": "VEC2"
    },
    {
      "bufferView": 0,
      "byteOffset": 3000,
      "componentType": 5125,
      "count": 96,
      "type": "SCALAR"
    },
    {
      "bufferView": 2,
      "byteOffset": 6168,
      "componentType": 5126,
      "count": 60,
      "max": [
        3.651003360748291,
        3.9913482666015625,
        3.995173215866089
      ],
      "min": [
        -3.3507423400878906,
        -3.324775457382202,
        -4.838369369506836
      ],
      "type": "VEC3"
    },
    {
      "bufferView": 2,
      "byteOffset": 6888,
      "componentType": 5126,
      "count": 60,
      "max": [
        0.7036148309707642,
        0.7157118320465088,
        0.9400263428688049
      ],
      "min": [
        -0.7036148309707642,
        -0.7246020436286926,
        -0.974891722202301
      ],
      "type": "VEC3"
    },
    {
      "bufferView": 1,
      "byteOffset": 2056,
      "componentType": 5126,
      "count": 60,
      "max": [
        0.9157558083534241,
        0.9628537893295288
      ],
      "min": [
        0.6777368187904358,
        0.7703092098236084
      ],
      "type": "VEC2"
    },
    {
      "bufferView": 0,
      "byteOffset": 3384,
      "componentType": 5125,
      "count": 108,
      "type": "SCALAR"
    },
    {
      "bufferView": 2,
      "byteOffset": 7608,
      "componentType": 5126,
      "count": 60,
      "max": [
        6.60534143447876,
        3.081881523132324,
        6.345083713531494
      ],
      "min": [
        -4.838600158691406,
        -5.14503812789917,
        -5.979973793029785
      ],
      "type": "VEC3"
    },
    {
      "bufferView": 2,
      "byteOffset": 8328,
      "componentType": 5126,
      "count": 60,
      "max": [
        0.8559132814407349,
        0.8251170516014099,
        0.9520238637924194
      ],
      "min": [
        -0.8193998336791992,
        -0.8251169919967651,
        -0.9194149971008301
      ],
      "type": "VEC3"
    },
    {
      "bufferView": 1,
      "byteOffset": 2536,
      "componentType": 5126,
      "count": 60,
      "max": [
        0.9157558083534241,
        0.9628537893295288
      ],
      "min": [
        0.6777368187904358,
        0.7703092098236084
      ],
      "type": "VEC2"
    },
    {
      "bufferView": 0,
      "byteOffset": 3816,
      "componentType": 5125,
      "count": 108,
      "type": "SCALAR"
    },
    {
      "bufferView": 2,
      "byteOffset": 9048,
      "componentType": 5126,
      "count": 60,
      "max": [
        6.60534143447876,
        3.081881523132324,
        6.345083713531494
      ],
      "min": [
        -4.838600158691406,
        -5.14503812789917,
        -5.979973793029785
      ],
      "type": "VEC3"
    },
    {
      "bufferView": 2,
      "byteOffset": 9768,
      "componentType": 5126,
      "count": 60,
      "max": [
        0.8559132814407349,
        0.8251170516014099,
        0.9520238637924194
      ],
      "min": [
        -0.8193998336791992,
        -0.8251169919967651,
        -0.9194149971008301
      ],
      "type": "VEC3"
    },
    {
      "bufferView": 1,
      "byteOffset": 3016,
      "componentType": 5126,
      "count": 60,
      "max": [
        0.9157558083534241,
        0.9628537893295288
      ],
      "min": [
        0.6777368187904358,
        0.7703092098236084
      ],
      "type": "VEC2"
    },
    {
      "bufferView": 0,
      "byteOffset": 4248,
      "componentType": 5125,
      "count": 108,
      "type": "SCALAR"
    },
    {
      "bufferView": 2,
      "byteOffset": 10488,
      "componentType": 5126,
      "count": 60,
      "max": [
        6.60534143447876,
        3.081881523132324,
        6.345083713531494
      ],
      "min": [
        -4.838600158691406,
        -5.14503812789917,
        -5.979973793029785
      ],
      "type": "VEC3"
    },
    {
      "bufferView": 2,
      "byteOffset": 11208,
      "componentType": 5126,
      "count": 60,
      "max": [
        0.8559132814407349,
        0.8251170516014099,
        0.9520238637924194
      ],
      "min": [
        -0.8193998336791992,
        -0.8251169919967651,
        -0.9194149971008301
      ],
      "type": "VEC3"
    },
    {
      "bufferView": 1,
      "byteOffset": 3496,
      "componentType": 5126,
      "count": 60,
      "max": [
        0.9157558083534241,
        0.9628537893295288
      ],
      "min": [
        0.6777368187904358,
        0.7703092098236084
      ],
      "type": "VEC2"
    },
    {
      "bufferView": 0,
      "byteOffset": 4680,
      "componentType": 5125,
      "count": 108,
      "type": "SCALAR"
    },
    {
      "bufferView": 2,
      "byteOffset": 11928,
      "componentType": 5126,
      "count": 56,
      "max": [
        1.9632796049118042,
        1.9632796049118042,
        -0.0
      ],
      "min": [
        -1.9632796049118042,
        -1.9632796049118042,
        -7.211767673492432
      ],
      "type": "VEC3"
    },
    {
      "bufferView": 2,
      "byteOffset": 12600,
      "componentType": 5126,
      "count": 56,
      "max": [
        1.0,
        1.0,
        1.0
      ],
      "min": [
        -1.0,
        -1.0,
        -1.0
      ],
      "type": "VEC3"
    },
    {
      "bufferView": 1,
      "byteOffset": 3976,
      "componentType": 5126,
      "count": 56,
      "max": [
        0.24823343753814697,
        0.24124976992607117
      ],
      "min": [
        0.06369250267744064,
        0.08435757458209991
      ],
      "type": "VEC2"
    },
    {
      "bufferView": 0,
      "byteOffset": 5112,
      "componentType": 5125,
      "count": 132,
      "type": "SCALAR"
    },
    {
      "bufferView": 2,
      "byteOffset": 13272,
      "componentType": 5126,
      "count": 56,
      "max": [
        1.9632796049118042,
        1.9632796049118042,
        -0.0
      ],
      "min": [
        -1.9632796049118042,
        -1.9632796049118042,
        -7.211767673492432
      ],
      "type": "VEC3"
    },
    {
      "bufferView": 2,
      "byteOffset": 13944,
      "componentType": 5126,
      "count": 56,
      "max": [
        1.0,
        1.0,
        1.0
      ],
      "min": [
        -1.0,
        -1.0,
        -1.0
      ],
      "type": "VEC3"
    },
    {
      "bufferView": 1,
      "byteOffset": 4424,
      "componentType": 5126,
      "count": 56,
      "max": [
        0.24823343753814697,
        0.24124976992607117
      ],
      "min": [
        0.040981046855449677,
        0.10706903040409088
      ],
      "type": "VEC2"
    },
    {
      "bufferView": 0,
      "byteOffset": 5640,
      "componentType": 5125,
      "count": 132,
      "type": "SCALAR"
    },
    {
      "bufferView": 2,
      "byteOffset": 14616,
      "componentType": 5126,
      "count": 106,
      "max": [
        6.346189498901367,
        6.346189498901367,
        -0.0
      ],
      "min": [
        -6.127875167294405e-06,
        -6.346189498901367,
        -6.051142692565918
      ],
      "type": "VEC3"
    },
    {
      "bufferView": 2,
      "byteOffset": 15888,
      "componentType": 5126,
      "count": 106,
      "max": [
        1.0,
        0.9876884818077087,
        1.0
      ],
      "min": [
        -1.0,
        -0.9876884818077087,
        -1.0
      ],
      "type": "VEC3"
    },
    {
      "bufferView": 1,
      "byteOffset": 4872,
      "componentType": 5126,
      "count": 106,
      "max": [
        0.24829721450805664,
        0.24062013626098633
      ],
      "min": [
        0.03999357670545578,
        0.03300991654396057
      ],
      "type": "VEC2"
    },
    {
      "bufferView": 0,
      "byteOffset": 6168,
      "componentType": 5125,
      "count": 252,
      "type": "SCALAR"
    }
  ],
  "asset": {
    "extras": {
      "author": "Vanillain (https://sketchfab.com/vanillain)",
      "license": "CC-BY-4.0 (http://creativecommons.org/licenses/by/4.0/)",
      "source": "https://sketchfab.com/3d-models/the-witchs-hat-f5aa8f9480934d4fb4550ddc5dfb14f8",
      "title": "The Witch's Hat"
    },
    "generator": "Sketchfab-12.68.0",
    "version": "2.0"
  },
  "bufferViews": [
    {
      "buffer": 0,
      "byteLength": 7176,
      "name": "floatBufferViews",
      "target": 34963
    },
    {
      "buffer": 0,
      "byteLength": 5720,
      "byteOffset": 7176,
      "byteStride": 8,
      "name": "floatBufferViews",
      "target": 34962
    },
    {
      "buffer": 0,
      "byteLength": 17160,
      "byteOffset": 12896,
      "byteStride": 12,
      "name": "floatBufferViews",
      "target": 34962
    }
  ],
  "buffers": [
    {
      "byteLength": 30056,
      "uri": "scene.bin"
    }
  ],
  "extensionsUsed": [
    "KHR_materials_unlit"
  ],
  "images": [
    {
      "uri": "textures/material_baseColor.png"
    }
  ],
  "materials": [
    {
      "extensions": {
        "KHR_materials_unlit": {}
      },
      "name": "material",
      "pbrMetallicRoughness": {
        "baseColorTexture": {
          "index": 0
        },
        "metallicFactor": 0.0
      }
    }
  ],
  "meshes": [
    {
      "name": "Object_0",
      "primitives": [
        {
          "attributes": {
            "NORMAL": 1,
            "POSITION": 0,
            "TEXCOORD_0": 2
          },
          "indices": 3,
          "material": 0,
          "mode": 4
        }
      ]
    },
    {
      "name": "Object_1",
      "primitives": [
        {
          "attributes": {
            "NORMAL": 5,
            "POSITION": 4,
            "TEXCOORD_0": 6
          },
          "indices": 7,
          "material": 0,
          "mode": 4
        }
      ]
    },
    {
      "name": "Object_2",
      "primitives": [
        {
          "attributes": {
            "NORMAL": 9,
            "POSITION": 8,
            "TEXCOORD_0": 10
          },
          "indices": 11,
          "material": 0,
          "mode": 4
        }
      ]
    },
    {
      "name": "Object_3",
      "primitives": [
        {
          "attributes": {
            "NORMAL": 13,
            "POSITION": 12,
            "TEXCOORD_0": 14
          },
          "indices": 15,
          "material": 0,
          "mode": 4
        }
      ]
    },
    {
      "name": "Object_4",
      "primitives": [
        {
          "attributes": {
            "NORMAL": 17,
            "POSITION": 16,
            "TEXCOORD_0": 18
          },
          "indices": 19,
          "material": 0,
          "mode": 4
        }
      ]
    },
    {
      "name": "Object_5",
      "primitives": [
        {
          "attributes": {
            "NORMAL": 21,
            "POSITION": 20,
            "TEXCOORD_0": 22
          },
          "indices": 23,
          "material": 0,
          "mode": 4
        }
      ]
    },
    {
      "name": "Object_6",
      "primitives": [
        {
          "attributes": {
            "NORMAL": 25,
            "POSITION": 24,
            "TEXCOORD_0": 26
          },
          "indices": 27,
          "material": 0,
          "mode": 4
        }
      ]
    },
    {
      "name": "Object_7",
      "primitives": [
        {
          "attributes": {
            "NORMAL": 29,
            "POSITION": 28,
            "TEXCOORD_0": 30
          },
          "indices": 31,
          "material": 0,
          "mode": 4
        }
      ]
    },
    {
      "name": "Object_8",
      "primitives": [
        {
          "attributes": {
            "NORMAL": 33,
            "POSITION": 32,
            "TEXCOORD_0": 34
          },
          "indices": 35,
          "material": 0,
          "mode": 4
        }
      ]
    }
  ],
  "nodes": [
    {
      "children": [
        1
      ],
      "matrix": [
        1.0,
        0.0,
        0.0,
        0.0,
        0.0,
        2.220446049250313e-16,
        -1.0,
        0.0,
        0.0,
        1.0,
        2.220446049250313e-16,
        0.0,
        0.0,
        0.0,
        0.0,
        1.0
      ],
      "name": "Sketchfab_model"
    },
    {
      "children": [
        2
      ],
      "name": "root"
    },
    {
      "children": [
        3
      ],
      "matrix": [
        1.0,
        0.0,
        0.0,
        0.0,
        0.0,
        2.220446049250313e-16,
        1.0,
        0.0,
        0.0,
        -1.0,
        2.220446049250313e-16,
        0.0,
        0.0,
        0.0,
        0.0,
        1.0
      ],
      "name": "GLTF_SceneRootNode"
    },
    {
      "children": [
        4,
        6,
        8,
        10,
        12,
        14,
        16
      ],
      "name": "Hat_0",
      "rotation": [
        -0.13816316425800323,
        -0.6934775710105896,
        0.6934773921966553,
        -0.138163223862648
      ],
      "scale": [
        1.0000007152557373,
        1.000000238418579,
        1.000000238418579
      ],
      "translation": [
        -0.20000000298023224,
        -270.79998779296875,
        287.5
      ]
    },
    {
      "children": [
        5
      ],
      "matrix": [
        1.0,
        0.0,
        0.0,
        0.0,
        0.0,
        1.0,
        0.0,
        0.0,
        0.0,
        0.0,
        1.0,
        0.0,
        0.0,
        3.814697265625e-06,
        29.387723922729492,
        1.0
      ],
      "name": "Cylinder001_1"
    },
    {
      "mesh": 0,
      "name": "Object_5"
    },
    {
      "children": [
        7
      ],
      "matrix": [
        1.0,
        0.0,
        0.0,
        0.0,
        0.0,
        1.0,
        0.0,
        0.0,
        0.0,
        0.0,
        1.0,
        0.0,
        -9.969207763671875,
        12.3453369140625,
        4.706977844238281,
        1.0
      ],
      "name": "Object001_2"
    },
    {
      "mesh": 1,
      "name": "Object_7"
    },
    {
      "children": [
        9
      ],
      "matrix": [
        1.0,
        0.0,
        0.0,
        0.0,
        0.0,
        1.0,
        0.0,
        0.0,
        0.0,
        0.0,
        1.0,
        0.0,
        10.770858764648438,
        11.035842895507813,
        6.4719696044921875,
        1.0
      ],
      "name": "Star002_3"
    },
    {
      "mesh": 2,
      "name": "Object_9"
    },
    {
      "children": [
        11
      ],
      "matrix": [
        1.0,
        0.0,
        0.0,
        0.0,
        0.0,
        1.0,
        0.0,
        0.0,
        0.0,
        0.0,
        1.0,
        0.0,
        9.45379638671875,
        -16.624828338623047,
        19.40198516845703,
        1.0
      ],
      "name": "Star003_4"
    },
    {
      "mesh": 3,
      "name": "Object_11"
    },
    {
      "children": [
        13
      ],
      "matrix": [
        0.5035407303055812,
        -0.46904479839058927,
        -0.5088615144381268,
        0.0,
        0.573183241768156,
        0.6353096985855876,
        -0.018408940475973416,
        0.0,
        0.3878195909565168,
        -0.3299619596802514,
        0.6879079886761736,
        0.0,
        -1.7027000188827515,
        -8.96030044555664,
        -11.85099983215332,
        1.0
      ],
      "name": "Star003 (1)_5"
    },
    {
      "mesh": 4,
      "name": "Object_13"
    },
    {
      "children": [
        15
      ],
      "matrix": [
        -0.5814627047620501,
        -0.5034718999444792,
        0.3753844692942259,
        0.0,
        0.6177340968905473,
        -0.5506955599274557,
        0.21825516412038537,
        0.0,
        0.11314609741317308,
        0.4192216324245359,
        0.737527975332249,
        0.0,
        -19.649999618530273,
        1.409999966621399,
        17.869539260864258,
        1.0
      ],
      "name": "Star003 (2)_6"
    },
    {
      "mesh": 5,
      "name": "Object_15"
    },
    {
      "children": [
        17,
        19
      ],
      "matrix": [
        -0.31650888063287996,
        -0.04852033941004842,
        0.6927015280903339,
        0.0,
        0.643430187095008,
        -0.3067636052543774,
        0.27250855726802464,
        0.0,
        0.2611264241161506,
        0.6970718564972841,
        0.16814023146765955,
        0.0,
        -7.058583736419678,
        -14.93508529663086,
        7.399141311645508,
        1.0
      ],
      "name": "Face_7"
    },
    {
      "children": [
        18
      ],
      "matrix": [
        0.9037707767145435,
        0.42131592735744483,
        0.07544052300804276,
        0.0,
        -0.35695565075832025,
        0.8391811701993865,
        -0.4103140589530079,
        0.0,
        -0.2361801146339268,
        0.343900934772973,
        0.908818519020041,
        0.0,
        -5.050000190734863,
        -8.850000381469727,
        7.769999980926514,
        1.0
      ],
      "name": "Cylinder004_8"
    },
    {
      "mesh": 6,
      "name": "Object_18"
    },
    {
      "children": [
        20,
        22
      ],
      "matrix": [
        1.0,
        0.0,
        0.0,
        0.0,
        0.0,
        1.0,
        0.0,
        0.0,
        0.0,
        0.0,
        1.0,
        0.0,
        0.0,
        3.7521305084228516,
        0.0,
        1.0
      ],
      "name": "Face 1_9"
    },
    {
      "children": [
        21
      ],
      "matrix": [
        1.0,
        0.0,
        0.0,
        0.0,
        0.0,
        1.0,
        0.0,
        0.0,
        0.0,
        0.0,
        1.0,
        0.0,
        -3.0299999713897705,
        8.039999961853027,
        7.070000171661377,
        1.0
      ],
      "name": "Cylinder003_10"
    },
    {
      "mesh": 7,
      "name": "Object_21"
    },
    {
      "children": [
        23
      ],
      "matrix": [
        1.0,
        0.0,
        0.0,
        0.0,
        0.0,
        1.0,
        0.0,
        0.0,
        0.0,
        0.0,
        1.0,
        0.0,
        -1.356004238128662,
        -3.656831741333008,
        3.605883836746216,
        1.0
      ],
      "name": "Cylinder005_11"
    },
    {
      "mesh": 8,
      "name": "Object_23"
    }
  ],
  "samplers": [
    {
      "magFilter": 9729,
      "minFilter": 9987,
      "wrapS": 10497,
      "wrapT": 10497
    }
  ],
  "scene": 0,
  "scenes": [
    {
      "name": "Sketchfab_Scene",
      "nodes": [
        0
      ]
    }
  ],
  "textures": [
    {
      "sampler": 0,
      "source": 0
    }
  ]
}
